<svg xmlns="http://www.w3.org/2000/svg" viewBox="0 0 128 128">
  <!-- Maskable variant: mark keeps inside the ~80% safe zone -->
  <rect width="128" height="128" fill="#0e0f13"/>
  <g transform="translate(64 64) scale(0.68) translate(-64 -64)">
    <path fill="#c9a45c" d="M64 22c-3 8-9 13-16 18-9 6-14 13-14 24 0 6 2 11 6 15l-6 14h12l4-9h28l4 9h12l-9-22c5-6 8-14 8-23 0-7-3-13-8-18-4-4-9-7-14-9l4-8-11 4z"/>
    <circle cx="57" cy="53" r="3" fill="#0e0f13"/>
    <rect x="36" y="96" width="56" height="8" rx="4" fill="#c9a45c"/>
  </g>
</svg>
